<?xml version="1.0" encoding="utf-8"?>
<!-- Generator: Adobe Illustrator 16.0.0, SVG Export Plug-In . SVG Version: 6.00 Build 0)  -->
<!DOCTYPE svg PUBLIC "-//W3C//DTD SVG 1.1//EN" "http://www.w3.org/Graphics/SVG/1.1/DTD/svg11.dtd">
<svg version="1.1" id="Capa_1" xmlns="http://www.w3.org/2000/svg" xmlns:xlink="http://www.w3.org/1999/xlink" x="0px" y="0px"
	 width="300px" height="300px" viewBox="0 0 300 300" style="enable-background:new 0 0 300 300;" xml:space="preserve">
<style type="text/css">
<![CDATA[
	.st0{fill:#024C61;}
	.st1{fill:#0C6881;}
	.st2{fill-rule:evenodd;clip-rule:evenodd;fill:#024C61;}
]]>
</style>
<g>
	<g>
		<path class="st0" d="M123.3,85.7l91.2,92.5l-36.7,36.2l-91.2-92.5L123.3,85.7 M123.3,75l-47.5,46.8L177.7,225l47.5-46.8L123.3,75
			L123.3,75z"/>
	</g>
	<path class="st0" d="M209,25.7l55.9,50.4l-52.2,58.9l-55.9-50.4L209,25.7 M208.4,15l-62.3,70.2l67.2,60.6l62.3-70.2L208.4,15
		L208.4,15z"/>
	<path class="st0" d="M86,165.3l55.9,50.4L91,273.9l-55.9-50.4L86,165.3 M85.4,154.6l-60.9,69.5l67.2,60.6l60.9-69.5L85.4,154.6
		L85.4,154.6z"/>
</g>
</svg>
