<?xml version="1.0" encoding="utf-8"?>
<!-- Generator: Adobe Illustrator 16.0.0, SVG Export Plug-In . SVG Version: 6.00 Build 0)  -->
<!DOCTYPE svg PUBLIC "-//W3C//DTD SVG 1.1//EN" "http://www.w3.org/Graphics/SVG/1.1/DTD/svg11.dtd">
<svg version="1.1" id="Capa_1" xmlns="http://www.w3.org/2000/svg" xmlns:xlink="http://www.w3.org/1999/xlink" x="0px" y="0px"
	 width="300px" height="300px" viewBox="0 0 300 300" style="enable-background:new 0 0 300 300;" xml:space="preserve">
<style type="text/css">
<![CDATA[
	.st0{fill:url(#SVGID_1_);}
	.st1{fill:#024C61;}
	.st2{fill:#0C6881;}
	.st3{fill-rule:evenodd;clip-rule:evenodd;fill:#024C61;}
]]>
</style>
<g>
	<polygon class="st1" points="150.5,218.7 143.7,225.5 136.9,218.7 129.3,210.9 104.7,238.9 131,262.6 181.9,204.5 173,196.5 	"/>
	<polygon class="st1" points="228.5,37.4 209,59.4 231.8,80 238.9,86.4 232.6,93.5 206.5,123.1 232.6,146.6 284.6,88 	"/>
	<g>
		<g>
			<polygon class="st2" points="98,87.5 58.4,126.6 143.4,212.8 183,173.7 			"/>
		</g>
		<polygon class="st1" points="117,96.1 173.1,146.6 225.1,88 169,37.4 		"/>
		<polygon class="st1" points="15.4,212 71.5,262.6 122.4,204.5 66.3,154 		"/>
	</g>
	<polygon class="st2" points="199.9,130.5 178.7,154.5 190.2,166.1 196.9,172.9 190.1,179.7 180,189.6 202.9,212.8 242.5,173.7 	"/>
</g>
</svg>
