<?xml version="1.0" encoding="utf-8"?>
<!-- Generator: Adobe Illustrator 16.0.0, SVG Export Plug-In . SVG Version: 6.00 Build 0)  -->
<!DOCTYPE svg PUBLIC "-//W3C//DTD SVG 1.1//EN" "http://www.w3.org/Graphics/SVG/1.1/DTD/svg11.dtd">
<svg version="1.1" id="Capa_1" xmlns="http://www.w3.org/2000/svg" xmlns:xlink="http://www.w3.org/1999/xlink" x="0px" y="0px"
	 width="300px" height="300px" viewBox="0 0 300 300" style="enable-background:new 0 0 300 300;" xml:space="preserve">
<style type="text/css">
<![CDATA[
	.st0{fill:url(#SVGID_1_);}
	.st1{fill:#024C61;}
	.st2{fill:#0C6881;}
	.st3{fill-rule:evenodd;clip-rule:evenodd;fill:#024C61;}
]]>
</style>
<g>
	<polygon class="st1" points="16.8,223.6 83.8,284 144.4,214.7 77.5,154.4 	"/>
	<path class="st2" d="M215.4,216.2c18.7,0,33.9-15.2,33.9-33.9s-15.2-33.9-33.9-33.9c-18.7,0-33.9,15.2-33.9,33.9
		S196.6,216.2,215.4,216.2z M215.4,233.2c-22.6,0-67.8,11.4-67.8,33.9v17h135.6v-17C283.2,244.5,238,233.2,215.4,233.2z"/>
	<path class="st1" d="M183.1,211.2c-6.9-7.7-11-17.8-11-28.8c0-13.5,6.2-25.6,16-33.6l-72.7-73.7l-47.3,46.6l101.4,102.8
		L183.1,211.2z"/>
	<path class="st1" d="M210.5,139.3l56.4-63.7L200,15.3l-62,70l62.5,56.4C203.7,140.5,207,139.7,210.5,139.3z"/>
</g>
</svg>
